<svg xmlns="http://www.w3.org/2000/svg" xmlns:xlink="http://www.w3.org/1999/xlink" width="380" zoomAndPan="magnify" viewBox="0 0 285 183.000001" height="244" preserveAspectRatio="xMidYMid meet" version="1.0"><defs><g/><clipPath id="650d84defc"><path d="M 182.703125 76 L 208.8125 76 L 208.8125 92 L 182.703125 92 Z M 182.703125 76 " clip-rule="nonzero"/></clipPath><clipPath id="c470adab36"><path d="M 183 88 L 208.8125 88 L 208.8125 104 L 183 104 Z M 183 88 " clip-rule="nonzero"/></clipPath></defs><g clip-path="url(#650d84defc)"><path fill="#3cacae" d="M 206.511719 82.554688 C 202.433594 76.578125 194.3125 75.0625 188.375 79.164062 C 185.183594 81.363281 183.273438 84.738281 182.820312 88.316406 L 182.816406 88.316406 C 182.816406 88.324219 182.816406 88.335938 182.816406 88.34375 C 182.800781 88.464844 182.789062 88.582031 182.773438 88.703125 C 182.773438 88.722656 182.769531 88.738281 182.769531 88.757812 C 182.757812 88.894531 182.746094 89.03125 182.738281 89.167969 C 182.734375 89.21875 182.734375 89.269531 182.730469 89.316406 C 182.726562 89.40625 182.722656 89.496094 182.71875 89.585938 C 182.71875 89.644531 182.714844 89.699219 182.714844 89.757812 C 182.714844 89.8125 182.710938 89.867188 182.710938 89.921875 L 182.714844 89.921875 C 182.710938 90.5625 182.75 91.207031 182.84375 91.84375 L 187.710938 89.425781 L 193.667969 86.339844 L 199.304688 89.988281 L 199.480469 86.359375 L 193.84375 82.710938 L 186.6875 86.347656 C 187.378906 84.601562 188.574219 83.03125 190.234375 81.886719 C 194.675781 78.816406 200.753906 79.953125 203.804688 84.421875 C 204.585938 85.5625 205.089844 86.8125 205.339844 88.085938 L 208.355469 86.5625 C 207.980469 85.167969 207.371094 83.8125 206.511719 82.554688 " fill-opacity="1" fill-rule="nonzero"/></g><g clip-path="url(#c470adab36)"><path fill="#ff00cf" d="M 208.804688 89.875 C 208.800781 89.273438 208.753906 88.671875 208.667969 88.074219 L 203.804688 90.535156 L 197.847656 93.621094 L 192.210938 89.972656 L 192.039062 93.601562 L 197.671875 97.25 L 204.84375 93.574219 C 204.15625 95.339844 202.953125 96.921875 201.285156 98.074219 C 196.839844 101.144531 190.761719 100.007812 187.710938 95.539062 C 186.90625 94.363281 186.394531 93.074219 186.15625 91.757812 L 183.125 93.261719 C 183.492188 94.707031 184.117188 96.109375 185.003906 97.40625 C 189.082031 103.382812 197.203125 104.898438 203.140625 100.796875 C 206.347656 98.585938 208.257812 95.191406 208.703125 91.59375 C 208.707031 91.585938 208.707031 91.578125 208.707031 91.570312 C 208.722656 91.441406 208.738281 91.3125 208.75 91.183594 C 208.75 91.171875 208.75 91.160156 208.75 91.148438 C 208.789062 90.726562 208.808594 90.300781 208.804688 89.875 " fill-opacity="1" fill-rule="nonzero"/></g><g fill="#3cacae" fill-opacity="1"><g transform="translate(89.686755, 99.953811)"><g><path d="M 6.863281 0 C 7.21875 0 7.40625 -0.183594 7.40625 -0.542969 L 7.40625 -6.96875 L 13.925781 -6.96875 C 14.269531 -6.96875 14.464844 -7.167969 14.464844 -7.511719 L 14.464844 -10.757812 C 14.464844 -11.113281 14.269531 -11.296875 13.925781 -11.296875 L 7.40625 -11.296875 L 7.40625 -15.679688 L 15.167969 -15.679688 C 15.523438 -15.679688 15.707031 -15.867188 15.707031 -16.222656 L 15.707031 -19.734375 C 15.707031 -20.089844 15.523438 -20.273438 15.167969 -20.273438 L 2.546875 -20.273438 C 2.191406 -20.273438 2.007812 -20.089844 2.007812 -19.734375 L 2.007812 -0.542969 C 2.007812 -0.183594 2.191406 0 2.546875 0 Z M 6.863281 0 "/></g></g></g><g fill="#3cacae" fill-opacity="1"><g transform="translate(111.721768, 99.953811)"><g><path d="M 6.863281 0 C 7.21875 0 7.40625 -0.183594 7.40625 -0.542969 L 7.40625 -19.734375 C 7.40625 -20.089844 7.21875 -20.273438 6.863281 -20.273438 L 2.546875 -20.273438 C 2.191406 -20.273438 2.007812 -20.089844 2.007812 -19.734375 L 2.007812 -0.542969 C 2.007812 -0.183594 2.191406 0 2.546875 0 Z M 6.863281 0 "/></g></g></g><g fill="#3cacae" fill-opacity="1"><g transform="translate(126.485071, 99.953811)"><g><path d="M 6.707031 0 C 7.0625 0 7.246094 -0.183594 7.246094 -0.542969 L 7.246094 -10.214844 L 18.464844 0 C 19.3125 0.777344 19.917969 0.4375 19.917969 -0.488281 L 19.917969 -19.734375 C 19.917969 -20.089844 19.734375 -20.273438 19.375 -20.273438 L 15.246094 -20.273438 C 14.890625 -20.273438 14.703125 -20.089844 14.703125 -19.734375 L 14.703125 -10.402344 L 3.351562 -20.40625 C 2.601562 -21.066406 2.03125 -20.734375 2.03125 -19.8125 L 2.03125 -0.542969 C 2.03125 -0.183594 2.21875 0 2.574219 0 Z M 6.707031 0 "/></g></g></g><g fill="#3cacae" fill-opacity="1"><g transform="translate(153.785816, 99.953811)"><g><path d="M 6.707031 0 C 7.0625 0 7.246094 -0.183594 7.246094 -0.542969 L 7.246094 -10.214844 L 18.464844 0 C 19.3125 0.777344 19.917969 0.4375 19.917969 -0.488281 L 19.917969 -19.734375 C 19.917969 -20.089844 19.734375 -20.273438 19.375 -20.273438 L 15.246094 -20.273438 C 14.890625 -20.273438 14.703125 -20.089844 14.703125 -19.734375 L 14.703125 -10.402344 L 3.351562 -20.40625 C 2.601562 -21.066406 2.03125 -20.734375 2.03125 -19.8125 L 2.03125 -0.542969 C 2.03125 -0.183594 2.21875 0 2.574219 0 Z M 6.707031 0 "/></g></g></g></svg>